<?xml version="1.0" standalone="no"?>
<!DOCTYPE svg PUBLIC "-//W3C//DTD SVG 20010904//EN"
 "http://www.w3.org/TR/2001/REC-SVG-20010904/DTD/svg10.dtd">
<svg version="1.0" xmlns="http://www.w3.org/2000/svg"
 width="300.000000pt" height="83.000000pt" viewBox="0 0 300.000000 83.000000"
 preserveAspectRatio="xMidYMid meet">
<metadata>
Created by potrace 1.10, written by Peter Selinger 2001-2011
</metadata>
<g transform="translate(0.000000,83.000000) scale(0.100000,-0.100000)"
fill="#000000" stroke="none">
<path d="M1210 410 l0 -270 26 0 27 0 -5 85 c-3 47 -3 85 1 85 3 0 44 -38 90
-84 66 -66 91 -85 117 -88 19 -2 34 -2 34 2 -1 3 -43 43 -95 90 l-94 85 27 25
c15 14 54 49 87 78 l59 52 -33 0 c-28 0 -46 -12 -110 -75 -43 -41 -79 -75 -82
-75 -2 0 -2 81 -1 180 l4 180 -26 0 -26 0 0 -270z"/>
<path d="M2620 410 c0 -263 0 -270 20 -270 18 0 20 7 20 86 l0 85 90 -83 c66
-61 100 -85 125 -89 19 -3 35 -3 34 0 0 3 -43 44 -95 91 -52 46 -94 87 -93 90
0 3 38 37 84 75 82 68 83 70 54 73 -25 3 -42 -9 -112 -72 l-82 -75 -3 179 c-2
172 -3 180 -22 180 -19 0 -20 -8 -20 -270z"/>
<path d="M60 624 l0 -26 90 4 90 3 0 -232 0 -233 25 0 26 0 -1 232 -1 232 85
-3 86 -3 0 26 0 26 -200 0 -200 0 0 -26z"/>
<path d="M1510 624 l0 -25 88 2 87 2 0 -232 0 -231 25 0 25 0 -3 232 -3 233
91 -3 90 -4 0 26 0 26 -200 0 -200 0 0 -26z"/>
<path d="M586 465 c-50 -18 -63 -30 -47 -48 10 -13 17 -12 49 5 72 38 162 6
162 -57 0 -20 -6 -23 -75 -28 -47 -3 -88 -13 -108 -24 -88 -52 -62 -166 41
-180 55 -7 89 3 118 34 l24 26 0 -27 c0 -20 5 -26 23 -26 22 0 22 0 17 133 -6
153 -16 179 -77 196 -50 14 -80 13 -127 -4z m164 -179 c0 -12 -5 -37 -11 -55
-28 -81 -179 -82 -179 -1 0 39 37 63 110 71 30 3 61 7 68 8 6 0 12 -10 12 -23z"/>
<path d="M934 464 c-53 -26 -71 -97 -34 -134 10 -10 45 -27 77 -36 73 -20 103
-39 103 -64 0 -60 -94 -81 -150 -34 -29 25 -33 26 -47 11 -14 -14 -14 -18 -2
-33 32 -39 134 -57 182 -33 48 25 70 83 51 134 -8 21 -50 42 -110 55 -80 18
-103 51 -62 90 31 28 83 26 111 -4 20 -21 25 -22 41 -10 17 12 17 16 5 30 -34
41 -112 55 -165 28z"/>
<path d="M2070 463 c-14 -9 -29 -23 -33 -30 -14 -22 -28 -14 -21 12 5 21 3 25
-18 25 l-23 0 0 -165 c0 -162 0 -165 22 -165 21 0 21 5 25 121 3 118 4 121 31
145 18 15 41 24 63 24 30 0 34 3 34 25 0 21 -5 25 -28 25 -15 0 -39 -8 -52
-17z"/>
<path d="M2290 458 c-65 -33 -92 -84 -87 -165 6 -117 92 -181 211 -159 35 7
96 49 96 67 0 21 -30 19 -65 -5 -56 -38 -115 -36 -160 7 -19 17 -38 46 -41 62
l-6 30 141 -3 141 -3 0 37 c0 56 -41 118 -90 138 -55 22 -87 20 -140 -6z m130
-33 c28 -14 60 -60 60 -85 0 -6 -43 -10 -121 -10 -120 0 -120 0 -114 23 22 72
108 107 175 72z"/>
</g>
</svg>
